<svg xmlns="http://www.w3.org/2000/svg" viewBox="0 0 128 128" role="img" aria-label="2CY Agent logo">
  <g transform="skewX(-6) translate(8 0)">
    <!-- 重笔画字身：日系标题字骨架 -->
    <g fill="none" stroke="oklch(22% 0.01 280)" stroke-width="13" stroke-linecap="square" stroke-linejoin="miter">
      <path d="M26 50 Q28 38 39 39 Q50 40 47 51 Q45 58 36 66 L28 75 L53 74"/>
      <path d="M78 46 Q62 36 56 53 Q52 69 66 74 Q74 76 80 70"/>
      <path d="M86 40 L96 58 L108 38"/>
      <path d="M96 58 Q94 76 86 93 Q81 102 70 108"/>
    </g>
    <!-- 切り込み：笔画上的留白刀痕 -->
    <g stroke="oklch(100% 0 0)" stroke-width="4" stroke-linecap="butt">
      <path d="M29 62 L44 55"/>
      <path d="M56 58 L70 53"/>
      <path d="M89 48 L102 43"/>
      <path d="M85 88 L96 84"/>
    </g>
    <!-- 朱红斜点：收势 -->
    <path d="M110 26 l9 -5 -3 10 -8 2 Z" fill="oklch(52% 0.185 30)"/>
  </g>
</svg>
