<svg xmlns="http://www.w3.org/2000/svg" viewBox="0 0 128 128" role="img" aria-label="2CY Agent logo">
  <!-- 分镜框 -->
  <path d="M16 18 Q14 14 19 13 L108 11 Q114 11 113 17 L115 104 Q115 110 109 110 L20 112 Q14 112 15 106 Z"
        fill="oklch(100% 0 0)" stroke="oklch(22% 0.01 280)" stroke-width="5" stroke-linejoin="round"/>
  <!-- 集中线：短促、避开气泡 -->
  <g stroke="oklch(22% 0.01 280)" stroke-width="3" stroke-linecap="round">
    <path d="M24 21 L33 29"/><path d="M104 19 L97 28"/>
    <path d="M109 60 L100 60"/><path d="M104 102 L96 94"/>
    <path d="M24 100 L32 93"/><path d="M19 60 L28 60"/>
  </g>
  <!-- 对话气泡：单条连续路径，尾巴一体成型 -->
  <path d="M38 40 Q34 34 43 33 Q64 30 86 33 Q94 34 92 41 L93 63 Q94 70 86 70 L60 71 L44 89 L50 71 L43 71 Q34 71 35 64 Z"
        fill="oklch(100% 0 0)" stroke="oklch(22% 0.01 280)" stroke-width="4.5" stroke-linejoin="round"/>
  <!-- 2CY：手绘矢量笔画，不依赖任何字体 -->
  <g fill="none" stroke="oklch(22% 0.01 280)" stroke-width="5.5" stroke-linecap="round" stroke-linejoin="round">
    <path d="M43 47 Q43.5 42.5 48.5 42.5 Q54 43 53.5 48 Q53 52 47.5 56.5 L43 61.5 L54.5 61"/>
    <path d="M73 46 Q66 41 61 46 Q57.5 50 59 56 Q61 61.5 67 61.5 Q71 61.5 73.5 59"/>
    <path d="M78 43 L84.5 53 L91 42.5 M84.5 53 L84 62"/>
  </g>
  <!-- 朱红闪光漫符 -->
  <path d="M102 23 l2.5 6 6 2.5 -6 2.5 -2.5 6 -2.5 -6 -6 -2.5 6 -2.5 Z" fill="oklch(52% 0.185 30)"/>
</svg>
